<svg xmlns="http://www.w3.org/2000/svg" xmlns:xlink="http://www.w3.org/1999/xlink" width="64" zoomAndPan="magnify" viewBox="304.703125 230.398438 158.25 307.5" height="64" preserveAspectRatio="xMidYMid meet" version="1.0"><defs><clipPath id="18e9bb703b"><path d="M 304.703125 230.398438 L 462.953125 230.398438 L 462.953125 537.898438 L 304.703125 537.898438 Z M 304.703125 230.398438 " clip-rule="nonzero"/></clipPath></defs><g clip-path="url(#18e9bb703b)"><path fill="#000000" d="M 462.851562 321.929688 C 462.851562 337.28125 462.957031 352.632812 462.824219 367.980469 C 462.65625 386.679688 453.769531 400.097656 437.441406 408.609375 C 427.480469 413.804688 417.519531 418.886719 410.363281 427.980469 C 406.699219 432.636719 404.265625 437.769531 403.875 443.8125 C 403.632812 447.5625 402.945312 451.265625 400.492188 454.324219 C 399.503906 455.554688 399.597656 456.972656 399.578125 458.378906 C 399.320312 475.011719 399.324219 491.652344 398.707031 508.269531 C 398.464844 514.824219 401.234375 520.804688 400.917969 527.332031 C 400.5 536.039062 399.128906 537.707031 390.394531 537.714844 C 385.25 537.714844 380.105469 537.765625 374.964844 537.691406 C 369.253906 537.605469 367.359375 535.351562 366.773438 529.710938 C 366.097656 523.164062 368.558594 517.011719 368.484375 510.566406 C 368.304688 493.796875 368.25 477.027344 368.171875 460.257812 C 368.164062 457.753906 367.769531 455.417969 366.363281 453.265625 C 364.929688 451.066406 364.101562 448.535156 364.007812 445.964844 C 363.550781 433.511719 356.3125 425.332031 347.03125 418.390625 C 341.957031 414.597656 336.367188 411.703125 330.722656 408.863281 C 313.742188 400.328125 304.910156 386.566406 304.867188 367.417969 C 304.800781 338.910156 304.96875 310.398438 304.769531 281.890625 C 304.710938 273.144531 305.109375 264.632812 309.117188 256.660156 C 317.414062 240.15625 330.976562 231.445312 349.1875 231.050781 C 372.320312 230.554688 395.480469 230.769531 418.625 230.976562 C 443.195312 231.195312 462.808594 251.257812 462.851562 275.871094 C 462.875 291.230469 462.851562 306.578125 462.851562 321.929688 Z M 457.195312 321.226562 C 457.195312 306.132812 457.265625 291.039062 457.179688 275.949219 C 457.050781 252.9375 439.972656 235.882812 417.074219 235.847656 C 394.828125 235.8125 372.578125 235.824219 350.332031 235.855469 C 348.15625 235.859375 345.941406 235.929688 343.8125 236.320312 C 323.464844 240.074219 310.355469 255.554688 310.152344 276.921875 C 309.875 306.460938 309.894531 336.003906 310.15625 365.542969 C 310.304688 382.242188 317.667969 394.917969 332.710938 402.832031 C 339.308594 406.304688 345.785156 410.023438 351.75 414.566406 C 360.84375 421.492188 367.8125 429.828125 369.726562 441.503906 C 370.191406 444.355469 371.910156 445.058594 374.292969 445.082031 C 380.71875 445.152344 387.15625 445.015625 393.574219 445.269531 C 396.570312 445.390625 397.601562 444.25 398.042969 441.433594 C 399.128906 434.527344 402.140625 428.472656 406.75 423.1875 C 414.617188 414.164062 424.75 408.3125 435.074219 402.746094 C 449.65625 394.886719 457.160156 382.777344 457.1875 366.117188 C 457.207031 351.15625 457.1875 336.191406 457.195312 321.226562 Z M 457.195312 321.226562 " fill-opacity="1" fill-rule="nonzero"/></g><path fill="#000000" d="M 312.613281 321.328125 C 312.613281 305.972656 312.539062 290.617188 312.632812 275.265625 C 312.753906 254.964844 329.023438 238.1875 349.316406 237.929688 C 372.335938 237.640625 395.363281 237.652344 418.386719 237.933594 C 438.746094 238.183594 455.074219 255.207031 455.105469 275.722656 C 455.152344 305.914062 455.160156 336.109375 455.097656 366.296875 C 455.0625 381.445312 448.207031 392.746094 435.148438 400.148438 C 425.511719 405.609375 415.777344 410.832031 407.792969 418.757812 C 402.0625 424.445312 397.96875 431.019531 396.320312 438.949219 C 395.707031 441.894531 394.398438 442.933594 391.359375 442.777344 C 386.101562 442.503906 380.816406 442.640625 375.546875 442.703125 C 373.5 442.726562 372.078125 442.214844 371.636719 439.957031 C 369.050781 426.746094 360.535156 417.910156 350 410.570312 C 344.707031 406.882812 339.0625 403.800781 333.433594 400.679688 C 319.9375 393.199219 312.570312 381.964844 312.59375 366.226562 C 312.617188 351.261719 312.601562 336.296875 312.601562 321.328125 C 312.605469 321.328125 312.609375 321.328125 312.613281 321.328125 Z M 312.613281 321.328125 " fill-opacity="1" fill-rule="nonzero"/></svg>