<?xml version="1.0" encoding="utf-8"?>
<!-- Generator: Adobe Illustrator 25.4.1, SVG Export Plug-In . SVG Version: 6.00 Build 0)  -->
<svg version="1.1" id="Layer_1" xmlns="http://www.w3.org/2000/svg" xmlns:xlink="http://www.w3.org/1999/xlink" x="0px" y="0px"
	 viewBox="0 0 1024 1024" style="enable-background:new 0 0 1024 1024;" xml:space="preserve">
<style type="text/css">
	.st0{fill:#A1E548;}
	.st1{fill:#3D4435;}
</style>
<rect class="st0" width="1024" height="1024"/>
<g>
	<path class="st1" d="M772.4,308.05c-5.31-35.89-17.17-67.99-34.71-95.07c-3.46-5.44-7.17-10.67-11.18-15.69
		c-15.18-19.27-33.62-35.34-54.87-47.62c-28.01-16.15-58.67-24.38-90.38-25.52h-0.04c-6.37-0.25-12.74-0.21-19.15,0.13
		c-77.94,4.13-159.22,49.56-216.7,125.73c-3.5,4.55-6.83,9.24-10.16,14.04c-5.27,7.76-10.33,15.82-15.14,24.12
		c-39.48,68.33-55.42,144.83-44.96,215.39l14.72,105.31c10.8,77.35-0.04,156.22-31.25,227.79l-9.53,21.84
		c-1.51,3.47-0.04,7.53,3.36,9.21l63.72,31.53c3.51,1.73,7.75,0.31,9.5-3.19l0,0c35.01-69.84,88.7-128.64,155.04-169.89
		l115.18-71.57c19.15-10.46,37.66-23.24,55.12-38.25c4.64-3.96,9.2-8.1,13.62-12.36c23.75-22.82,45.09-49.81,62.84-80.6
		C766.92,455.04,782.9,378.57,772.4,308.05z M714.45,321.51c0.21,1.6,0.38,3.16,0.51,4.77l-27.29-13.33v-0.04l16.83-33.57
		C709.22,292.4,712.55,306.49,714.45,321.51z M695.6,259l-23.24,46.44l-65.42-31.93l35.64-71.19
		C665.11,215.56,683.03,234.92,695.6,259z M542.04,365.07l-32.18,64.28l-65.42-31.93l32.18-64.28L542.04,365.07z M484.3,317.88
		l34.29-68.54l65.37,31.93l-34.29,68.54h-0.04L484.3,317.88z M502.18,444.62L470,508.94l-65.42-31.97l32.22-64.28L502.18,444.62z
		 M517.53,452.12l65.37,31.93l-32.18,64.32l-65.37-31.93L517.53,452.12z M525.17,436.86l32.18-64.28l65.42,31.93l-32.22,64.28
		L525.17,436.86z M565.02,357.27l34.29-68.49l65.37,31.93l-34.33,68.54L565.02,357.27z M571.85,183.5c19.27,0,38,3.58,55.46,11.13
		h0.04L591.59,266l-65.37-31.93l24.63-49.14C557.89,184.01,564.9,183.5,571.85,183.5z M529.68,189.03l-18.81,37.54l-33.23-16.24
		C494.55,200.67,512.13,193.46,529.68,189.03z M460.55,221l42.68,20.84l-34.29,68.54l-68.16-33.32
		C418.59,254.61,438.96,235.76,460.55,221z M375.57,314.08c4.64-8.01,9.57-15.73,14.8-23.07l70.94,34.63l-32.18,64.28l-72.97-35.64
		C361.48,340.74,367.98,327.24,375.57,314.08z M350.3,370.47v-0.04l71.15,34.75l-32.18,64.32l-52.38-25.6
		C337.73,420.03,342.16,395.19,350.3,370.47z M336.98,462.92l44.66,21.85l-26.78,53.48C344.15,515.9,338.16,490.21,336.98,462.92z
		 M411.25,600.67c-19.02-11.01-34.5-26.19-46.31-44.41l32.05-64.02l65.37,31.97l-40.91,81.74
		C418,604.34,414.62,602.57,411.25,600.67z M437.44,612.23h-0.04l40.32-80.56l65.37,31.93l-25.6,51.2
		C489.44,621.04,462.2,620.2,437.44,612.23z M551.4,603.87c-3.84,1.64-7.72,3.16-11.6,4.47l18.64-37.2l28.51,13.92
		C575.48,592.45,563.63,598.77,551.4,603.87z M602.9,573.85l-36.78-17.97l32.14-64.32l57.99,28.34
		C640.56,540.7,622.51,558.92,602.9,573.85z M677.25,488.23c-3.46,6.03-7.13,11.89-10.92,17.59l-60.4-29.52l32.14-64.28l59.34,28.98
		l6.54-13.29C697.5,448.33,688.56,468.66,677.25,488.23z M704.63,425.47l-58.88-28.76l34.33-68.49l36.06,17.63
		c0.04,1.35,0.04,2.61,0.04,3.96C716.18,374.73,712.26,400.29,704.63,425.47z"/>
	<g>
		<path class="st1" d="M586.2,720.91c-12.36,12.91-19.97,30.41-19.97,49.7c0,17.76,6.46,34.01,17.13,46.56
			c8.79-14.87,13.84-32.2,13.84-50.69C597.2,750.08,593.23,734.58,586.2,720.91z"/>
		<path class="st1" d="M691.66,722.61c-6.5,13.25-10.15,28.14-10.15,43.86c0,17.77,4.67,34.47,12.83,48.95
			c9.82-12.29,15.7-27.86,15.7-44.82C710.03,752.16,703.08,735.34,691.66,722.61z"/>
		<path class="st1" d="M666.58,766.48c0-19.58,4.93-38.03,13.6-54.18c-11.83-8.54-26.34-13.59-42.05-13.59
			c-14.93,0-28.8,4.55-40.29,12.34c9.09,16.45,14.28,35.34,14.28,55.42c0,22.48-6.5,43.47-17.7,61.21
			c12.11,9.29,27.26,14.83,43.71,14.83c17.2,0,32.98-6.04,45.35-16.11C672.77,808.94,666.58,788.42,666.58,766.48z"/>
	</g>
</g>
</svg>
