<svg xmlns="http://www.w3.org/2000/svg" xmlns:xlink="http://www.w3.org/1999/xlink" width="64" zoomAndPan="magnify" viewBox="254.601562 206.820312 285.679688 354.628906" height="64" preserveAspectRatio="xMidYMid meet" version="1.0"><defs><clipPath id="81915fd66f"><path d="M 280 236 L 471 236 L 471 478 L 280 478 Z M 280 236 " clip-rule="nonzero"/></clipPath><clipPath id="21731fd55d"><path d="M 254.601562 272.871094 L 434.085938 206.820312 L 540.28125 495.402344 L 360.796875 561.449219 Z M 254.601562 272.871094 " clip-rule="nonzero"/></clipPath><clipPath id="5ee6f72618"><path d="M 254.601562 272.871094 L 434.085938 206.820312 L 540.28125 495.402344 L 360.796875 561.449219 Z M 254.601562 272.871094 " clip-rule="nonzero"/></clipPath><clipPath id="ec8ffd4dc6"><path d="M 254.601562 272.871094 L 434.085938 206.820312 L 540.28125 495.402344 L 360.796875 561.449219 Z M 254.601562 272.871094 " clip-rule="nonzero"/></clipPath><clipPath id="4e897fa506"><path d="M 360 485 L 391 485 L 391 521 L 360 521 Z M 360 485 " clip-rule="nonzero"/></clipPath><clipPath id="45d6f84d15"><path d="M 254.601562 272.871094 L 434.085938 206.820312 L 540.28125 495.402344 L 360.796875 561.449219 Z M 254.601562 272.871094 " clip-rule="nonzero"/></clipPath><clipPath id="e63c9f4999"><path d="M 254.601562 272.871094 L 434.085938 206.820312 L 540.28125 495.402344 L 360.796875 561.449219 Z M 254.601562 272.871094 " clip-rule="nonzero"/></clipPath><clipPath id="d18cd7b841"><path d="M 254.601562 272.871094 L 434.085938 206.820312 L 540.28125 495.402344 L 360.796875 561.449219 Z M 254.601562 272.871094 " clip-rule="nonzero"/></clipPath><clipPath id="9405157cd7"><path d="M 354 513 L 396 513 L 396 551 L 354 551 Z M 354 513 " clip-rule="nonzero"/></clipPath><clipPath id="4140203aa9"><path d="M 254.601562 272.871094 L 434.085938 206.820312 L 540.28125 495.402344 L 360.796875 561.449219 Z M 254.601562 272.871094 " clip-rule="nonzero"/></clipPath><clipPath id="c31998d773"><path d="M 254.601562 272.871094 L 434.085938 206.820312 L 540.28125 495.402344 L 360.796875 561.449219 Z M 254.601562 272.871094 " clip-rule="nonzero"/></clipPath><clipPath id="604769840d"><path d="M 254.601562 272.871094 L 434.085938 206.820312 L 540.28125 495.402344 L 360.796875 561.449219 Z M 254.601562 272.871094 " clip-rule="nonzero"/></clipPath></defs><g clip-path="url(#81915fd66f)"><g clip-path="url(#21731fd55d)"><g clip-path="url(#5ee6f72618)"><g clip-path="url(#ec8ffd4dc6)"><path fill="#050505" d="M 358.550781 477.03125 C 357.746094 473.777344 356.433594 470.335938 354.609375 466.761719 C 348.992188 455.84375 342.269531 445.628906 334.398438 436.136719 C 327.066406 427.277344 323.136719 422.519531 322.601562 421.882812 C 308.148438 404.824219 296.914062 386.054688 288.800781 365.023438 C 276.191406 332.386719 276.261719 294.824219 300.109375 267.179688 C 312.882812 252.375 329.878906 243.308594 349.53125 239.074219 C 391.515625 230.011719 441.203125 242.640625 461.613281 283.183594 C 471.472656 302.808594 472.375 327.785156 466.765625 349.292969 C 461.738281 368.609375 452.972656 386.757812 441.664062 403.285156 C 440.09375 405.570312 437.328125 409.378906 433.40625 414.699219 C 427.332031 422.929688 418.1875 433.5625 413.242188 439.949219 C 404.332031 451.488281 397.332031 463.800781 392.242188 476.90625 C 392.089844 477.308594 391.71875 477.558594 391.300781 477.554688 L 359.324219 477.625 C 358.953125 477.621094 358.636719 477.394531 358.550781 477.03125 Z M 329.328125 280.949219 C 329.070312 278.046875 331.300781 275.496094 334.265625 275.234375 C 337.226562 274.976562 339.824219 277.132812 340.074219 280.015625 C 340.3125 282.929688 338.101562 285.472656 335.140625 285.730469 C 332.15625 286 329.558594 283.839844 329.328125 280.949219 Z M 358.878906 278.378906 C 359.890625 281.125 358.472656 284.136719 355.742188 285.140625 C 353.007812 286.148438 349.976562 284.769531 348.96875 282.027344 C 347.964844 279.304688 349.375 276.273438 352.105469 275.265625 C 354.839844 274.261719 357.878906 275.65625 358.878906 278.378906 Z M 320.894531 297.804688 C 321.902344 300.546875 320.496094 303.578125 317.722656 304.597656 C 314.96875 305.613281 311.929688 304.214844 310.921875 301.472656 C 309.910156 298.730469 311.3125 295.675781 314.066406 294.664062 C 316.839844 293.644531 319.882812 295.058594 320.894531 297.804688 Z M 378.144531 277.933594 C 379.175781 280.738281 377.722656 283.835938 374.925781 284.863281 C 372.113281 285.898438 369.019531 284.476562 367.988281 281.671875 C 366.964844 278.890625 368.390625 275.78125 371.203125 274.746094 C 374 273.714844 377.121094 275.152344 378.144531 277.933594 Z M 339.964844 296.898438 C 340.996094 299.703125 339.542969 302.796875 336.75 303.824219 C 333.957031 304.855469 330.839844 303.4375 329.808594 300.636719 C 328.785156 297.851562 330.238281 294.757812 333.035156 293.726562 C 335.828125 292.699219 338.941406 294.113281 339.964844 296.898438 Z M 397.265625 277.910156 C 398.273438 280.65625 396.851562 283.714844 394.097656 284.730469 C 391.324219 285.75 388.257812 284.339844 387.25 281.597656 C 386.234375 278.832031 387.652344 275.773438 390.425781 274.753906 C 393.179688 273.738281 396.246094 275.148438 397.265625 277.910156 Z M 359.125 296.859375 C 360.152344 299.644531 358.730469 302.703125 355.957031 303.726562 C 353.160156 304.753906 350.09375 303.34375 349.070312 300.558594 C 348.054688 297.796875 349.46875 294.714844 352.261719 293.6875 C 355.035156 292.667969 358.109375 294.097656 359.125 296.859375 Z M 416.433594 277.457031 C 417.449219 280.21875 416.007812 283.289062 413.253906 284.300781 C 410.480469 285.320312 407.394531 283.917969 406.378906 281.15625 C 405.359375 278.394531 406.800781 275.324219 409.574219 274.304688 C 412.328125 273.289062 415.414062 274.691406 416.433594 277.457031 Z M 320.625 316.078125 C 321.640625 318.84375 320.234375 321.875 317.460938 322.894531 C 314.707031 323.910156 311.648438 322.519531 310.632812 319.757812 C 309.621094 317.015625 311.042969 313.953125 313.796875 312.941406 C 316.570312 311.921875 319.617188 313.335938 320.625 316.078125 Z M 378.320312 296.535156 C 379.328125 299.277344 377.921875 302.308594 375.167969 303.320312 C 372.394531 304.34375 369.355469 302.945312 368.347656 300.203125 C 367.335938 297.460938 368.738281 294.40625 371.511719 293.386719 C 374.265625 292.375 377.308594 293.789062 378.320312 296.535156 Z M 339.902344 315.351562 C 340.925781 318.136719 339.515625 321.21875 336.71875 322.246094 C 333.945312 323.265625 330.851562 321.84375 329.828125 319.0625 C 328.8125 316.296875 330.246094 313.210938 333.019531 312.1875 C 335.8125 311.160156 338.886719 312.589844 339.902344 315.351562 Z M 386.875 297.445312 C 387.195312 294.535156 389.875 292.441406 392.878906 292.742188 C 395.871094 293.074219 398.039062 295.691406 397.71875 298.597656 C 397.386719 301.535156 394.699219 303.609375 391.714844 303.300781 C 388.703125 302.976562 386.554688 300.355469 386.875 297.445312 Z M 348.804688 316.574219 C 348.90625 313.703125 351.394531 311.46875 354.355469 311.582031 C 357.3125 311.691406 359.632812 314.089844 359.523438 316.945312 C 359.402344 319.828125 356.914062 322.058594 353.960938 321.96875 C 351.003906 321.855469 348.683594 319.457031 348.804688 316.574219 Z M 416.386719 295.398438 C 417.414062 298.179688 415.976562 301.269531 413.183594 302.296875 C 410.390625 303.324219 407.296875 301.902344 406.273438 299.121094 C 405.246094 296.335938 406.679688 293.246094 409.476562 292.21875 C 412.269531 291.191406 415.363281 292.613281 416.386719 295.398438 Z M 310.3125 335.628906 C 310.207031 332.695312 312.558594 330.214844 315.59375 330.089844 C 318.597656 329.953125 321.152344 332.242188 321.273438 335.148438 C 321.390625 338.105469 319.039062 340.585938 316.003906 340.710938 C 312.996094 340.847656 310.441406 338.558594 310.3125 335.628906 Z M 378.230469 314.605469 C 379.238281 317.347656 377.84375 320.351562 375.089844 321.367188 C 372.359375 322.371094 369.328125 320.996094 368.320312 318.253906 C 367.316406 315.53125 368.726562 312.496094 371.457031 311.492188 C 374.210938 310.480469 377.230469 311.882812 378.230469 314.605469 Z M 435.511719 295.578125 C 436.539062 298.363281 435.105469 301.449219 432.308594 302.480469 C 429.535156 303.5 426.421875 302.085938 425.398438 299.300781 C 424.375 296.519531 425.808594 293.429688 428.601562 292.402344 C 431.394531 291.375 434.488281 292.796875 435.511719 295.578125 Z M 329.734375 335.613281 C 329.648438 332.738281 331.996094 330.304688 334.976562 330.222656 C 337.96875 330.113281 340.449219 332.382812 340.523438 335.285156 C 340.609375 338.164062 338.261719 340.59375 335.28125 340.675781 C 332.28125 340.765625 329.800781 338.496094 329.734375 335.613281 Z M 397.347656 314.515625 C 398.359375 317.257812 396.929688 320.296875 394.175781 321.3125 C 391.421875 322.324219 388.382812 320.925781 387.375 318.183594 C 386.367188 315.441406 387.765625 312.386719 390.519531 311.375 C 393.273438 310.363281 396.339844 311.773438 397.347656 314.515625 Z M 359.300781 333.199219 C 360.324219 335.984375 358.875 339.097656 356.0625 340.132812 C 353.269531 341.164062 350.144531 339.726562 349.121094 336.945312 C 348.089844 334.140625 349.535156 331.023438 352.332031 329.996094 C 355.144531 328.960938 358.265625 330.394531 359.300781 333.199219 Z M 416.667969 314.027344 C 417.691406 316.808594 416.257812 319.898438 413.464844 320.925781 C 410.667969 321.953125 407.574219 320.53125 406.550781 317.75 C 405.527344 314.964844 406.960938 311.875 409.753906 310.847656 C 412.550781 309.820312 415.644531 311.242188 416.667969 314.027344 Z M 320.683594 351.792969 C 321.671875 354.472656 320.214844 357.5 317.398438 358.539062 C 314.613281 359.585938 311.507812 358.261719 310.523438 355.578125 C 309.535156 352.894531 310.992188 349.867188 313.804688 348.832031 C 316.601562 347.804688 319.675781 349.117188 320.683594 351.792969 Z M 367.792969 334.757812 C 367.609375 331.871094 369.878906 329.351562 372.863281 329.152344 C 375.847656 328.957031 378.433594 331.140625 378.601562 334.054688 C 378.785156 336.941406 376.535156 339.453125 373.53125 339.65625 C 370.546875 339.855469 367.980469 337.664062 367.792969 334.757812 Z M 425.585938 315.171875 C 425.699219 312.269531 428.257812 310.035156 431.246094 310.160156 C 434.261719 310.296875 436.59375 312.738281 436.460938 315.648438 C 436.320312 318.535156 433.769531 320.789062 430.78125 320.667969 C 427.765625 320.53125 425.453125 318.082031 425.585938 315.171875 Z M 339.839844 351.550781 C 340.847656 354.292969 339.425781 357.351562 336.671875 358.367188 C 333.898438 359.386719 330.832031 357.976562 329.824219 355.234375 C 328.808594 352.472656 330.226562 349.410156 333 348.390625 C 335.753906 347.375 338.820312 348.785156 339.839844 351.550781 Z M 397.621094 332.316406 C 398.65625 335.117188 397.199219 338.214844 394.40625 339.242188 C 391.589844 340.277344 388.496094 338.855469 387.464844 336.050781 C 386.441406 333.269531 387.867188 330.160156 390.683594 329.125 C 393.476562 328.097656 396.597656 329.53125 397.621094 332.316406 Z M 348.550781 352.449219 C 348.898438 349.554688 351.605469 347.472656 354.578125 347.808594 C 357.578125 348.15625 359.703125 350.789062 359.367188 353.707031 C 359.019531 356.601562 356.332031 358.675781 353.339844 358.347656 C 350.339844 357.996094 348.210938 355.363281 348.550781 352.449219 Z M 406.40625 333.652344 C 406.703125 330.75 409.347656 328.621094 412.347656 328.902344 C 415.324219 329.191406 417.523438 331.773438 417.246094 334.667969 C 416.953125 337.589844 414.308594 339.714844 411.3125 339.433594 C 408.3125 339.152344 406.132812 336.566406 406.40625 333.652344 Z M 320.6875 370.246094 C 321.699219 372.988281 320.277344 376.046875 317.523438 377.0625 C 314.769531 378.074219 311.703125 376.664062 310.695312 373.921875 C 309.6875 371.179688 311.105469 368.121094 313.859375 367.105469 C 316.613281 366.09375 319.679688 367.503906 320.6875 370.246094 Z M 367.820312 351.953125 C 368.167969 349.058594 370.871094 347.027344 373.851562 347.382812 C 376.832031 347.742188 378.957031 350.371094 378.601562 353.246094 C 378.25 356.125 375.53125 358.183594 372.574219 357.820312 C 369.59375 357.460938 367.46875 354.832031 367.820312 351.953125 Z M 436.042969 331.878906 C 437.066406 334.664062 435.621094 337.777344 432.824219 338.808594 C 430.011719 339.84375 426.910156 338.402344 425.886719 335.617188 C 424.855469 332.8125 426.289062 329.726562 429.101562 328.6875 C 431.898438 327.660156 435.011719 329.074219 436.042969 331.878906 Z M 339.898438 369.519531 C 340.921875 372.304688 339.488281 375.390625 336.695312 376.421875 C 333.898438 377.449219 330.804688 376.027344 329.78125 373.242188 C 328.757812 370.460938 330.191406 367.371094 332.984375 366.34375 C 335.78125 365.316406 338.875 366.738281 339.898438 369.519531 Z M 397.417969 350.453125 C 398.429688 353.195312 397.027344 356.25 394.253906 357.269531 C 391.5 358.28125 388.457031 356.867188 387.445312 354.121094 C 386.4375 351.378906 387.84375 348.347656 390.597656 347.332031 C 393.371094 346.3125 396.410156 347.710938 397.417969 350.453125 Z M 359.414062 369.375 C 360.4375 372.160156 359.003906 375.246094 356.230469 376.269531 C 353.433594 377.296875 350.359375 375.867188 349.335938 373.082031 C 348.320312 370.320312 349.734375 367.238281 352.527344 366.210938 C 355.300781 365.191406 358.394531 366.613281 359.414062 369.375 Z M 406.515625 350.128906 C 407.535156 347.421875 410.644531 346.117188 413.4375 347.164062 C 416.238281 348.234375 417.664062 351.285156 416.636719 353.96875 C 415.609375 356.652344 412.507812 357.980469 409.707031 356.910156 C 406.90625 355.84375 405.460938 352.800781 406.515625 350.128906 Z M 368.234375 371.828125 C 367.769531 368.929688 369.800781 366.199219 372.773438 365.726562 C 375.730469 365.261719 378.507812 367.214844 378.972656 370.113281 C 379.429688 372.988281 377.382812 375.726562 374.425781 376.191406 C 371.449219 376.664062 368.671875 374.710938 368.234375 371.828125 Z M 435.925781 349.9375 C 436.949219 352.722656 435.515625 355.8125 432.703125 356.847656 C 429.910156 357.875 426.816406 356.453125 425.789062 353.667969 C 424.757812 350.867188 426.191406 347.777344 428.988281 346.75 C 431.800781 345.714844 434.902344 347.15625 435.925781 349.9375 Z M 329.878906 391.824219 C 328.90625 389.113281 330.410156 386.089844 333.253906 385.070312 C 336.074219 384.054688 339.15625 385.433594 340.128906 388.144531 C 341.101562 390.855469 339.597656 393.875 336.753906 394.898438 C 333.933594 395.914062 330.855469 394.535156 329.878906 391.824219 Z M 388.6875 366.929688 C 390.707031 364.871094 394.070312 364.882812 396.199219 366.957031 C 398.308594 369.042969 398.382812 372.382812 396.359375 374.441406 C 394.316406 376.507812 390.957031 376.5 388.828125 374.421875 C 386.714844 372.339844 386.644531 368.996094 388.6875 366.929688 Z M 349.167969 387.792969 C 350.203125 385.0625 353.335938 383.699219 356.164062 384.78125 C 359.007812 385.835938 360.46875 388.917969 359.40625 391.640625 C 358.375 394.371094 355.242188 395.734375 352.410156 394.652344 C 349.589844 393.589844 348.136719 390.527344 349.167969 387.792969 Z M 406.605469 371.824219 C 405.707031 369.066406 407.328125 366.046875 410.226562 365.117188 C 413.121094 364.167969 416.1875 365.644531 417.074219 368.433594 C 417.972656 371.195312 416.375 374.207031 413.472656 375.132812 C 410.582031 376.082031 407.503906 374.585938 406.605469 371.824219 Z M 378.660156 387.320312 C 379.691406 390.125 378.246094 393.242188 375.429688 394.277344 C 372.617188 395.3125 369.496094 393.878906 368.460938 391.074219 C 367.429688 388.269531 368.886719 385.175781 371.699219 384.140625 C 374.515625 383.105469 377.628906 384.519531 378.660156 387.320312 Z M 426.265625 367.171875 C 427.683594 364.601562 431 363.679688 433.691406 365.132812 C 436.359375 366.597656 437.386719 369.886719 435.96875 372.460938 C 434.535156 375.042969 431.214844 375.964844 428.546875 374.5 C 425.859375 373.046875 424.832031 369.753906 426.265625 367.171875 Z M 398.167969 386.902344 C 399.191406 389.6875 397.765625 392.796875 394.949219 393.832031 C 392.15625 394.859375 389.035156 393.425781 388.007812 390.640625 C 386.976562 387.835938 388.433594 384.742188 391.226562 383.714844 C 394.039062 382.675781 397.136719 384.097656 398.167969 386.902344 Z M 417.164062 386.671875 C 418.164062 389.394531 416.757812 392.425781 414.023438 393.433594 C 411.269531 394.445312 408.230469 393.050781 407.230469 390.328125 C 406.222656 387.585938 407.628906 384.550781 410.382812 383.539062 C 413.117188 382.53125 416.152344 383.929688 417.164062 386.671875 Z M 402.171875 421.507812 C 404.242188 423.609375 402.191406 427.039062 400.574219 429.0625 C 394.132812 437.292969 387.859375 446.429688 381.789062 456.484375 C 379.875 459.65625 377.066406 460.898438 373.398438 460.242188 C 371.703125 459.917969 370.765625 459.25 369.820312 457.753906 C 363.355469 447.488281 357.261719 437.78125 349.839844 428.5625 C 347.355469 425.464844 348.328125 421.507812 352.140625 420.472656 C 353.683594 420.066406 355.757812 419.855469 358.371094 419.84375 C 371.40625 419.84375 384.476562 419.808594 397.625 419.722656 C 399.492188 419.703125 401.007812 420.300781 402.171875 421.507812 Z M 402.171875 421.507812 " fill-opacity="1" fill-rule="evenodd"/></g></g></g></g><g clip-path="url(#4e897fa506)"><g clip-path="url(#45d6f84d15)"><g clip-path="url(#e63c9f4999)"><g clip-path="url(#d18cd7b841)"><path fill="#050505" d="M 373.6875 497.96875 C 374.238281 498.457031 374.703125 498.773438 375.042969 498.878906 C 377.976562 499.871094 381.628906 501.042969 385.992188 502.390625 C 387.039062 502.722656 387.855469 503.113281 388.4375 503.566406 C 388.71875 503.765625 388.878906 504.074219 388.871094 504.421875 L 388.878906 520.5 C 388.867188 520.59375 388.78125 520.671875 388.679688 520.640625 C 382.722656 518.679688 374.28125 516.136719 363.308594 513 C 362.5625 512.789062 361.765625 512.390625 360.910156 511.828125 C 360.75 511.703125 360.632812 511.515625 360.640625 511.28125 L 360.644531 485.304688 C 360.648438 485.1875 360.75 485.082031 360.886719 485.078125 L 389.480469 485.003906 C 389.804688 485 390.039062 485.261719 390.035156 485.5625 L 389.441406 501.191406 C 389.425781 501.40625 389.230469 501.566406 389.023438 501.507812 L 374.152344 497.152344 C 373.652344 496.988281 373.308594 497.625 373.6875 497.96875 Z M 373.6875 497.96875 " fill-opacity="1" fill-rule="evenodd"/></g></g></g></g><g clip-path="url(#9405157cd7)"><g clip-path="url(#4140203aa9)"><g clip-path="url(#c31998d773)"><g clip-path="url(#604769840d)"><path fill="#050505" d="M 360.507812 514.007812 C 360.5 513.988281 360.523438 513.980469 360.527344 514 C 371.144531 517.175781 379.421875 519.710938 385.304688 521.609375 C 386.519531 522.015625 387.542969 522.46875 388.363281 522.996094 C 388.636719 523.171875 388.796875 523.484375 388.800781 523.804688 C 388.828125 527.601562 388.644531 530.183594 389.710938 532.699219 C 389.800781 532.941406 389.992188 533.148438 390.222656 533.269531 C 391.996094 534.1875 394.289062 535.511719 394.996094 537.558594 C 395.339844 538.5625 395.453125 540.6875 395.273438 543.914062 C 395.058594 548.421875 392.609375 550.707031 387.945312 550.808594 C 386.703125 550.828125 377.839844 550.722656 361.386719 550.503906 C 354.429688 550.410156 354.136719 542.8125 354.484375 537.910156 C 354.703125 534.667969 356.773438 533.8125 358.984375 532.261719 C 359.515625 531.882812 359.847656 531.277344 359.871094 530.644531 Z M 360.507812 514.007812 " fill-opacity="1" fill-rule="evenodd"/></g></g></g></g></svg>