<svg xmlns="http://www.w3.org/2000/svg" xmlns:xlink="http://www.w3.org/1999/xlink" width="64" zoomAndPan="magnify" viewBox="302 226 148 345" height="64" preserveAspectRatio="xMidYMid meet" version="1.0"><defs><clipPath id="1f8dd916d4"><path d="M 302 226 L 450 226 L 450 571 L 302 571 Z M 302 226 " clip-rule="nonzero"/></clipPath><clipPath id="9837635f92"><path d="M 197.40625 327.234375 L 394.53125 189.019531 L 571.066406 440.796875 L 373.941406 579.011719 Z M 197.40625 327.234375 " clip-rule="nonzero"/></clipPath><clipPath id="8e1bc40f1d"><path d="M 197.40625 327.234375 L 394.53125 189.019531 L 571.066406 440.796875 L 373.941406 579.011719 Z M 197.40625 327.234375 " clip-rule="nonzero"/></clipPath><clipPath id="bf02e3a173"><path d="M 197.40625 327.234375 L 394.53125 189.019531 L 571.066406 440.796875 L 373.941406 579.011719 Z M 197.40625 327.234375 " clip-rule="nonzero"/></clipPath></defs><g clip-path="url(#1f8dd916d4)"><g clip-path="url(#9837635f92)"><g clip-path="url(#8e1bc40f1d)"><g clip-path="url(#bf02e3a173)"><path fill="#29242c" d="M 398.980469 415.285156 C 391.417969 430.996094 382.070312 448.363281 380.71875 450.996094 C 378.492188 455.320312 375.410156 456.414062 372.425781 450.984375 C 370.5625 447.589844 361.164062 430.453125 353.535156 415.492188 C 348.816406 406.25 356.019531 406.988281 358.332031 407.425781 C 363.882812 409.140625 369.734375 410.0625 375.808594 410.035156 L 375.988281 410.03125 L 376.230469 410.03125 C 379.683594 410.019531 383.078125 409.699219 386.402344 409.105469 C 386.550781 409.082031 386.695312 409.054688 386.835938 409.027344 C 387.214844 408.957031 387.59375 408.886719 387.964844 408.8125 C 389.765625 408.453125 391.542969 408.023438 393.292969 407.515625 C 394.550781 407.542969 402.476562 408.019531 398.980469 415.285156 Z M 440.308594 335.429688 C 440.238281 335.851562 440.164062 336.273438 440.089844 336.699219 L 440.078125 333.609375 L 440.601562 333.605469 C 440.53125 334.085938 440.453125 334.566406 440.378906 335.046875 C 440.355469 335.171875 440.332031 335.300781 440.308594 335.429688 Z M 440.882812 331.613281 C 440.855469 331.828125 440.824219 332.039062 440.796875 332.253906 L 440.070312 332.253906 L 440.035156 324.132812 L 441.578125 324.121094 C 441.558594 324.488281 441.535156 324.863281 441.515625 325.234375 L 441.5 325.40625 C 441.457031 326.066406 441.40625 326.730469 441.347656 327.386719 L 441.324219 327.671875 C 441.265625 328.289062 441.203125 328.898438 441.136719 329.511719 L 441.113281 329.710938 C 441.0625 330.191406 441.003906 330.667969 440.941406 331.144531 C 440.921875 331.296875 440.90625 331.457031 440.882812 331.609375 Z M 439.375 340.230469 C 439.179688 341.089844 438.980469 341.953125 438.765625 342.800781 C 438.980469 341.953125 439.175781 341.09375 439.375 340.230469 Z M 440.042969 336.9375 L 439.996094 337.207031 C 439.847656 337.988281 439.691406 338.765625 439.523438 339.535156 C 439.703125 338.675781 439.882812 337.8125 440.042969 336.9375 Z M 410.050781 388.613281 C 400.175781 396.105469 388.59375 400.449219 376.1875 400.503906 C 375.453125 400.511719 374.71875 400.492188 373.988281 400.460938 L 373.984375 399.445312 L 382.109375 399.40625 L 382.109375 400.140625 C 382.5625 400.089844 383.015625 400.03125 383.464844 399.96875 L 383.464844 399.40625 L 386.800781 399.390625 C 388.882812 398.953125 390.929688 398.40625 392.9375 397.738281 L 392.902344 389.882812 L 401.03125 389.84375 L 401.050781 394.3125 C 401.503906 394.078125 401.953125 393.835938 402.402344 393.589844 L 402.382812 389.835938 L 408.429688 389.808594 C 408.976562 389.417969 409.515625 389.019531 410.050781 388.613281 Z M 431.648438 362.082031 C 431.34375 362.683594 431.03125 363.28125 430.71875 363.867188 L 430.710938 362.085938 Z M 436.078125 351.71875 C 436.03125 351.835938 435.992188 351.957031 435.949219 352.066406 C 435.992188 351.957031 436.03125 351.835938 436.078125 351.71875 Z M 435.757812 352.585938 C 434.730469 355.386719 433.578125 358.101562 432.316406 360.722656 L 430.703125 360.730469 L 430.671875 352.609375 Z M 438.691406 343.09375 C 437.988281 345.871094 437.175781 348.585938 436.246094 351.230469 L 430.664062 351.253906 L 430.632812 343.128906 Z M 438.75 341.738281 L 430.625 341.773438 L 430.59375 333.65625 L 438.71875 333.617188 Z M 439.933594 298.980469 C 439.738281 297.976562 439.527344 296.980469 439.308594 295.992188 C 439.527344 296.980469 439.738281 297.976562 439.933594 298.980469 Z M 439.277344 295.851562 C 439.050781 294.847656 438.808594 293.855469 438.554688 292.863281 L 438.558594 294.351562 L 430.4375 294.386719 L 430.402344 286.265625 L 436.578125 286.234375 C 436.429688 285.78125 436.269531 285.332031 436.109375 284.882812 L 430.398438 284.910156 L 430.363281 276.785156 L 432.792969 276.773438 C 435.5625 282.703125 437.75 289.101562 439.277344 295.851562 Z M 439.953125 303.820312 L 439.933594 298.984375 C 440.289062 300.824219 440.585938 302.6875 440.835938 304.574219 C 440.800781 304.324219 440.773438 304.070312 440.738281 303.816406 Z M 441.632812 313.292969 L 439.992188 313.296875 L 439.957031 305.171875 L 440.917969 305.175781 C 441.261719 307.835938 441.496094 310.546875 441.632812 313.292969 Z M 411.828125 387.21875 C 411.386719 387.578125 410.949219 387.929688 410.507812 388.273438 C 410.949219 387.929688 411.386719 387.578125 411.828125 387.21875 Z M 411.289062 248.773438 C 414.683594 251.492188 417.863281 254.585938 420.796875 258.007812 C 420.351562 257.488281 419.902344 256.980469 419.449219 256.476562 L 419.445312 256.53125 L 411.320312 256.5625 Z M 401.804688 247.128906 L 401.785156 242.472656 C 401.339844 242.234375 400.890625 242 400.441406 241.769531 C 403.445312 243.285156 406.335938 245.070312 409.097656 247.097656 Z M 409.109375 247.105469 C 409.84375 247.644531 410.570312 248.195312 411.285156 248.769531 C 410.570312 248.195312 409.84375 247.644531 409.109375 247.105469 Z M 401.839844 256.609375 L 401.808594 248.484375 L 409.933594 248.449219 L 409.96875 256.574219 Z M 401.878906 266.085938 L 401.847656 257.960938 L 409.972656 257.925781 L 410.003906 266.046875 Z M 401.917969 275.5625 L 401.882812 267.441406 L 410.011719 267.402344 L 410.042969 275.523438 Z M 401.957031 285.042969 L 401.925781 276.914062 L 410.046875 276.882812 L 410.082031 285 Z M 402 294.519531 L 401.960938 286.394531 L 410.089844 286.359375 L 410.121094 294.484375 Z M 402.035156 304 L 402 295.875 L 410.128906 295.835938 L 410.160156 303.960938 Z M 402.070312 313.472656 L 402.039062 305.351562 L 410.164062 305.3125 L 410.199219 313.4375 Z M 402.113281 322.949219 L 402.078125 314.832031 L 410.203125 314.789062 L 410.238281 322.914062 Z M 402.148438 332.429688 L 402.117188 324.304688 L 410.242188 324.269531 L 410.277344 332.394531 Z M 402.191406 341.902344 L 402.152344 333.78125 L 410.28125 333.746094 L 410.316406 341.867188 Z M 402.226562 351.382812 L 402.195312 343.257812 L 410.320312 343.222656 L 410.351562 351.347656 Z M 402.265625 360.859375 L 402.234375 352.742188 L 410.359375 352.703125 L 410.390625 360.824219 Z M 402.304688 370.339844 L 402.273438 362.21875 L 410.398438 362.179688 L 410.429688 370.300781 Z M 410.472656 380.320312 L 410.503906 388.273438 C 410.429688 388.332031 410.347656 388.386719 410.273438 388.445312 L 402.378906 388.484375 L 402.34375 380.359375 Z M 402.34375 379.007812 L 402.308594 371.695312 L 410.441406 371.652344 L 410.464844 378.972656 Z M 421.289062 377.871094 C 420.625 378.671875 419.941406 379.445312 419.242188 380.207031 C 419.941406 379.445312 420.625 378.671875 421.289062 377.871094 Z M 419.175781 380.285156 C 416.867188 382.792969 414.421875 385.105469 411.851562 387.203125 L 411.824219 380.316406 Z M 419.914062 371.613281 L 419.941406 378.925781 L 411.820312 378.960938 L 411.792969 371.648438 Z M 419.875 362.132812 L 419.910156 370.257812 L 411.785156 370.296875 L 411.75 362.175781 Z M 419.835938 352.65625 L 419.875 360.777344 L 411.746094 360.820312 L 411.710938 352.695312 Z M 419.800781 343.179688 L 419.832031 351.300781 L 411.707031 351.34375 L 411.675781 343.214844 Z M 419.761719 333.703125 L 419.792969 341.828125 L 411.671875 341.863281 L 411.636719 333.738281 Z M 419.722656 324.222656 L 419.757812 332.347656 L 411.628906 332.386719 L 411.597656 324.261719 Z M 419.683594 314.746094 L 419.714844 322.867188 L 411.589844 322.910156 L 411.558594 314.785156 Z M 419.648438 305.265625 L 419.675781 313.394531 L 411.554688 313.429688 L 411.519531 305.304688 Z M 419.609375 295.792969 L 419.640625 303.917969 L 411.511719 303.953125 L 411.480469 295.828125 Z M 419.570312 286.3125 L 419.601562 294.4375 L 411.476562 294.476562 L 411.441406 286.351562 Z M 419.53125 276.835938 L 419.5625 284.960938 L 411.4375 285 L 411.402344 276.875 Z M 419.492188 267.359375 L 419.523438 275.480469 L 411.402344 275.519531 L 411.363281 267.394531 Z M 411.324219 257.917969 L 419.449219 257.882812 L 419.488281 266.007812 L 411.359375 266.042969 Z M 426.765625 370.523438 L 426.707031 370.609375 Z M 426.054688 371.585938 C 424.554688 373.78125 422.964844 375.878906 421.292969 377.867188 L 421.269531 371.605469 Z M 430.464844 364.324219 C 430.140625 364.929688 429.808594 365.53125 429.46875 366.121094 C 429.808594 365.53125 430.140625 364.929688 430.464844 364.324219 Z M 429.375 366.285156 C 428.597656 367.632812 427.796875 368.945312 426.957031 370.226562 L 421.261719 370.253906 L 421.234375 362.125 L 429.355469 362.089844 Z M 430.34375 271.921875 C 429.898438 271.109375 429.445312 270.3125 428.980469 269.527344 C 430.101562 271.429688 431.160156 273.398438 432.148438 275.421875 L 430.359375 275.433594 Z M 420.839844 265.996094 L 420.808594 258.023438 C 422.933594 260.503906 424.925781 263.160156 426.773438 265.96875 Z M 426.796875 266.007812 C 427.082031 266.441406 427.367188 266.875 427.640625 267.320312 C 427.367188 266.875 427.082031 266.441406 426.796875 266.007812 Z M 428.980469 269.519531 L 429 275.441406 L 420.878906 275.476562 L 420.84375 267.351562 L 427.644531 267.320312 C 428.101562 268.042969 428.542969 268.78125 428.980469 269.519531 Z M 429.347656 360.738281 L 421.226562 360.777344 L 421.191406 352.652344 L 429.316406 352.613281 Z M 420.917969 284.953125 L 420.878906 276.832031 L 429.011719 276.792969 L 429.042969 284.914062 Z M 420.957031 294.433594 L 420.925781 286.304688 L 429.046875 286.269531 L 429.078125 294.398438 Z M 420.992188 303.90625 L 420.960938 295.785156 L 429.085938 295.75 L 429.117188 303.875 Z M 421.03125 313.386719 L 421 305.261719 L 429.125 305.222656 L 429.15625 313.351562 Z M 421.070312 322.863281 L 421.039062 314.742188 L 429.164062 314.703125 L 429.195312 322.828125 Z M 421.113281 332.339844 L 421.082031 324.21875 L 429.203125 324.179688 L 429.234375 332.308594 Z M 429.277344 343.132812 L 429.3125 351.257812 L 421.1875 351.296875 L 421.152344 343.171875 Z M 421.148438 341.816406 L 421.113281 333.695312 L 429.242188 333.660156 L 429.273438 341.78125 Z M 438.683594 324.136719 L 438.714844 332.261719 L 430.589844 332.296875 L 430.554688 324.175781 Z M 438.640625 314.660156 L 438.675781 322.785156 L 430.550781 322.820312 L 430.515625 314.695312 Z M 430.472656 303.863281 L 430.4375 295.742188 L 438.570312 295.703125 L 438.597656 303.832031 Z M 438.605469 305.179688 L 438.636719 313.304688 L 430.507812 313.34375 L 430.476562 305.21875 Z M 392.363281 256.65625 L 392.332031 248.527344 L 400.453125 248.492188 L 400.488281 256.617188 Z M 392.402344 266.128906 L 392.367188 258.003906 L 400.492188 257.96875 L 400.523438 266.09375 Z M 392.4375 275.609375 L 392.40625 267.484375 L 400.53125 267.445312 L 400.5625 275.570312 Z M 392.480469 285.085938 L 392.445312 276.960938 L 400.574219 276.921875 L 400.601562 285.046875 Z M 392.515625 294.558594 L 392.480469 286.441406 L 400.609375 286.402344 L 400.640625 294.527344 Z M 392.554688 304.039062 L 392.523438 295.914062 L 400.648438 295.878906 L 400.679688 304.003906 Z M 392.59375 313.515625 L 392.558594 305.394531 L 400.6875 305.359375 L 400.71875 313.480469 Z M 392.636719 322.996094 L 392.601562 314.871094 L 400.726562 314.832031 L 400.761719 322.957031 Z M 392.667969 332.472656 L 392.636719 324.351562 L 400.761719 324.3125 L 400.796875 332.4375 Z M 392.710938 341.949219 L 392.679688 333.824219 L 400.800781 333.789062 L 400.835938 341.914062 Z M 392.746094 351.429688 L 392.714844 343.300781 L 400.839844 343.261719 L 400.871094 351.390625 Z M 392.789062 360.90625 L 392.753906 352.78125 L 400.875 352.742188 L 400.914062 360.867188 Z M 392.824219 370.382812 L 392.796875 362.257812 L 400.921875 362.222656 L 400.949219 370.347656 Z M 392.863281 379.046875 L 392.828125 371.734375 L 400.957031 371.699219 L 400.988281 379.015625 Z M 401.023438 388.488281 L 392.898438 388.527344 L 392.863281 380.402344 L 400.992188 380.367188 Z M 400.429688 241.761719 L 400.449219 247.136719 L 392.324219 247.175781 L 392.289062 239.050781 L 394.125 239.042969 C 396.273438 239.816406 398.375 240.726562 400.429688 241.761719 Z M 382.808594 237.738281 L 382.796875 236.265625 C 385.214844 236.589844 387.589844 237.074219 389.921875 237.707031 Z M 389.9375 237.710938 C 391.34375 238.097656 392.738281 238.539062 394.117188 239.039062 C 392.738281 238.539062 391.34375 238.097656 389.9375 237.710938 Z M 382.847656 247.21875 L 382.808594 239.09375 L 390.9375 239.058594 L 390.972656 247.179688 Z M 382.878906 256.695312 L 382.847656 248.570312 L 390.976562 248.535156 L 391.007812 256.65625 Z M 382.921875 266.171875 L 382.890625 258.050781 L 391.019531 258.011719 L 391.046875 266.136719 Z M 382.960938 275.648438 L 382.925781 267.53125 L 391.050781 267.488281 L 391.085938 275.613281 Z M 383 285.128906 L 382.964844 277.003906 L 391.09375 276.964844 L 391.125 285.09375 Z M 383.035156 294.609375 L 383.003906 286.484375 L 391.128906 286.445312 L 391.164062 294.570312 Z M 383.074219 304.082031 L 383.042969 295.960938 L 391.171875 295.921875 L 391.199219 304.046875 Z M 383.113281 313.558594 L 383.082031 305.433594 L 391.203125 305.398438 L 391.242188 313.523438 Z M 383.152344 323.039062 L 383.121094 314.917969 L 391.246094 314.875 L 391.28125 323 Z M 383.191406 332.515625 L 383.15625 324.394531 L 391.285156 324.355469 L 391.320312 332.476562 Z M 383.230469 341.992188 L 383.195312 333.867188 L 391.320312 333.835938 L 391.359375 341.957031 Z M 383.269531 351.46875 L 383.238281 343.347656 L 391.359375 343.3125 L 391.390625 351.433594 Z M 383.308594 360.949219 L 383.277344 352.828125 L 391.398438 352.789062 L 391.433594 360.910156 Z M 383.34375 370.429688 L 383.3125 362.304688 L 391.4375 362.265625 L 391.472656 370.386719 Z M 383.378906 379.09375 L 383.351562 371.78125 L 391.476562 371.746094 L 391.507812 379.054688 Z M 391.550781 389.886719 L 391.585938 398.007812 L 383.457031 398.050781 L 383.425781 389.925781 Z M 383.421875 388.570312 L 383.386719 380.445312 L 391.511719 380.410156 L 391.542969 388.535156 Z M 372.375 235.910156 C 372.582031 235.898438 372.792969 235.886719 373.003906 235.878906 C 372.792969 235.886719 372.582031 235.898438 372.375 235.910156 Z M 373.316406 235.871094 C 374.050781 235.832031 374.78125 235.804688 375.519531 235.800781 C 377.976562 235.785156 380.40625 235.949219 382.796875 236.265625 C 382.347656 236.207031 381.898438 236.15625 381.445312 236.105469 L 381.449219 237.746094 L 373.324219 237.785156 Z M 363.84375 237.152344 C 366.5 236.542969 369.207031 236.140625 371.960938 235.945312 L 371.96875 237.792969 L 363.847656 237.828125 Z M 358.042969 238.828125 C 358.601562 238.632812 359.15625 238.449219 359.722656 238.269531 C 359.15625 238.449219 358.601562 238.632812 358.042969 238.828125 Z M 361.15625 237.839844 C 361.597656 237.714844 362.042969 237.597656 362.492188 237.484375 L 362.492188 237.832031 Z M 353.546875 240.605469 C 353.667969 240.546875 353.78125 240.496094 353.902344 240.445312 C 353.78125 240.496094 353.667969 240.546875 353.546875 240.605469 Z M 354.375 240.246094 C 355.230469 239.878906 356.09375 239.539062 356.960938 239.210938 L 362.496094 239.191406 L 362.53125 247.3125 L 354.40625 247.351562 Z M 343.714844 246.195312 C 343.917969 246.050781 344.125 245.910156 344.332031 245.773438 C 344.125 245.910156 343.917969 246.050781 343.714844 246.195312 Z M 344.917969 245.386719 C 347.519531 243.65625 350.230469 242.136719 353.027344 240.847656 L 353.050781 247.355469 L 344.925781 247.390625 Z M 341.125 248.101562 C 341.375 247.914062 341.617188 247.722656 341.863281 247.535156 C 341.617188 247.722656 341.375 247.914062 341.125 248.101562 Z M 342.039062 247.40625 C 342.546875 247.03125 343.058594 246.660156 343.570312 246.300781 L 343.574219 247.398438 Z M 334.761719 253.714844 C 334.929688 253.542969 335.097656 253.378906 335.261719 253.214844 C 335.097656 253.378906 334.929688 253.542969 334.761719 253.714844 Z M 335.46875 253.019531 C 337.019531 251.511719 338.636719 250.097656 340.289062 248.765625 L 343.578125 248.753906 L 343.609375 256.878906 L 335.488281 256.914062 Z M 330.878906 257.898438 C 331 257.761719 331.117188 257.617188 331.238281 257.480469 C 331.117188 257.617188 331 257.761719 330.878906 257.898438 Z M 331.734375 256.929688 C 332.511719 256.054688 333.308594 255.199219 334.121094 254.367188 L 334.132812 256.921875 Z M 325.355469 265.171875 C 325.460938 265.015625 325.570312 264.859375 325.671875 264.703125 C 325.570312 264.859375 325.460938 265.015625 325.355469 265.171875 Z M 326.039062 264.1875 C 327.460938 262.132812 328.96875 260.160156 330.550781 258.289062 L 334.136719 258.277344 L 334.171875 266.394531 L 326.046875 266.4375 Z M 324.53125 266.441406 C 324.582031 266.363281 324.636719 266.28125 324.6875 266.199219 L 324.691406 266.441406 Z M 319.222656 275.945312 C 320.574219 273.117188 322.058594 270.398438 323.664062 267.800781 L 324.695312 267.792969 L 324.726562 275.917969 Z M 316.472656 282.355469 C 316.671875 281.839844 316.878906 281.316406 317.089844 280.800781 C 316.878906 281.316406 316.671875 281.839844 316.472656 282.355469 Z M 317.433594 279.976562 C 317.808594 279.070312 318.199219 278.183594 318.601562 277.300781 L 324.738281 277.273438 L 324.769531 285.394531 L 317.457031 285.429688 Z M 315.347656 285.441406 C 315.582031 284.746094 315.835938 284.054688 316.089844 283.367188 L 316.097656 285.4375 Z M 312.609375 294.929688 C 313.257812 292.15625 314.019531 289.441406 314.890625 286.796875 L 316.105469 286.789062 L 316.140625 294.914062 Z M 310.863281 304.414062 C 310.902344 304.125 310.941406 303.832031 310.980469 303.542969 C 311.019531 303.304688 311.046875 303.078125 311.082031 302.84375 C 311.152344 302.386719 311.226562 301.925781 311.296875 301.472656 C 311.339844 301.21875 311.386719 300.960938 311.429688 300.707031 C 311.503906 300.269531 311.578125 299.84375 311.660156 299.410156 C 311.710938 299.152344 311.757812 298.898438 311.804688 298.640625 C 311.886719 298.21875 311.976562 297.789062 312.058594 297.363281 C 312.132812 297 312.226562 296.644531 312.304688 296.285156 L 316.144531 296.269531 L 316.175781 304.394531 Z M 310.042969 313.898438 C 310.0625 313.46875 310.082031 313.035156 310.105469 312.605469 C 310.121094 312.289062 310.136719 311.976562 310.164062 311.664062 C 310.175781 311.382812 310.199219 311.101562 310.214844 310.816406 C 310.242188 310.476562 310.261719 310.132812 310.292969 309.796875 C 310.300781 309.667969 310.3125 309.542969 310.320312 309.414062 C 310.347656 309.164062 310.367188 308.910156 310.386719 308.660156 C 310.417969 308.316406 310.449219 307.972656 310.484375 307.632812 C 310.527344 307.183594 310.578125 306.738281 310.632812 306.292969 C 310.652344 306.121094 310.671875 305.941406 310.695312 305.769531 L 316.183594 305.75 L 316.210938 313.867188 Z M 309.957031 318.457031 C 309.953125 317.378906 309.972656 316.3125 310.003906 315.25 L 316.222656 315.222656 L 316.253906 323.347656 L 310.097656 323.375 C 310.015625 321.746094 309.964844 320.105469 309.957031 318.457031 Z M 311.230469 334.195312 C 311.15625 333.75 311.089844 333.304688 311.023438 332.855469 C 311.089844 333.304688 311.15625 333.75 311.230469 334.195312 Z M 310.175781 324.730469 L 316.261719 324.699219 L 316.292969 332.824219 L 311.019531 332.847656 C 310.636719 330.1875 310.347656 327.476562 310.175781 324.730469 Z M 316.21875 353.117188 C 316.058594 352.675781 315.890625 352.234375 315.730469 351.792969 C 315.890625 352.234375 316.058594 352.675781 316.21875 353.117188 Z M 311.230469 334.199219 L 316.296875 334.175781 L 316.332031 342.304688 L 312.871094 342.320312 C 312.984375 342.769531 313.097656 343.21875 313.21875 343.671875 L 316.339844 343.65625 L 316.371094 351.78125 L 315.726562 351.78125 C 313.730469 346.222656 312.207031 340.335938 311.230469 334.199219 Z M 317.492188 294.90625 L 317.460938 286.785156 L 324.773438 286.75 L 324.808594 294.875 Z M 317.53125 304.382812 L 317.5 296.261719 L 324.808594 296.230469 L 324.847656 304.351562 Z M 317.570312 313.863281 L 317.535156 305.742188 L 324.851562 305.707031 L 324.882812 313.828125 Z M 317.609375 323.339844 L 317.574219 315.214844 L 324.890625 315.183594 L 324.921875 323.304688 Z M 317.644531 332.816406 L 317.617188 324.699219 L 324.925781 324.660156 L 324.960938 332.785156 Z M 325.007812 343.609375 L 325.039062 351.742188 L 317.722656 351.773438 L 317.6875 343.648438 Z M 317.683594 342.292969 L 317.652344 334.171875 L 324.964844 334.136719 L 325 342.261719 Z M 316.222656 353.132812 L 316.375 353.132812 L 316.378906 353.535156 C 316.8125 354.675781 317.269531 355.800781 317.746094 356.910156 L 317.730469 353.125 L 325.046875 353.09375 L 325.074219 361.21875 L 319.738281 361.242188 C 319.960938 361.699219 320.1875 362.144531 320.417969 362.589844 L 325.082031 362.574219 L 325.113281 370.609375 C 325.558594 371.277344 326.015625 371.945312 326.476562 372.59375 L 326.476562 372.039062 L 334.601562 372.007812 L 334.628906 379.320312 L 331.8125 379.328125 C 325.316406 372.023438 319.996094 363.128906 316.222656 353.132812 Z M 331.84375 379.367188 C 332.238281 379.804688 332.628906 380.242188 333.035156 380.671875 C 332.628906 380.242188 332.238281 379.804688 331.84375 379.367188 Z M 333.039062 380.679688 L 334.636719 380.667969 L 334.644531 382.335938 C 334.101562 381.792969 333.566406 381.238281 333.039062 380.679688 Z M 326.082031 275.910156 L 326.050781 267.789062 L 334.171875 267.75 L 334.207031 275.875 Z M 326.125 285.386719 L 326.085938 277.269531 L 334.214844 277.230469 L 334.25 285.351562 Z M 326.160156 294.871094 L 326.128906 286.742188 L 334.257812 286.703125 L 334.289062 294.832031 Z M 326.199219 304.347656 L 326.167969 296.222656 L 334.289062 296.1875 L 334.328125 304.308594 Z M 326.238281 313.824219 L 326.207031 305.699219 L 334.332031 305.660156 L 334.359375 313.785156 Z M 326.277344 323.300781 L 326.246094 315.179688 L 334.371094 315.140625 L 334.402344 323.261719 Z M 326.3125 332.78125 L 326.285156 324.652344 L 334.410156 324.617188 L 334.441406 332.742188 Z M 326.355469 342.257812 L 326.324219 334.128906 L 334.445312 334.09375 L 334.476562 342.214844 Z M 326.394531 351.738281 L 326.363281 343.609375 L 334.480469 343.574219 L 334.515625 351.699219 Z M 334.5625 362.527344 L 334.59375 370.648438 L 326.46875 370.6875 L 326.4375 362.566406 Z M 326.429688 361.210938 L 326.398438 353.089844 L 334.523438 353.050781 L 334.558594 361.175781 Z M 335.527344 266.390625 L 335.488281 258.269531 L 343.617188 258.230469 L 343.648438 266.355469 Z M 335.5625 275.867188 L 335.535156 267.742188 L 343.65625 267.707031 L 343.6875 275.832031 Z M 335.597656 285.347656 L 335.566406 277.226562 L 343.691406 277.183594 L 343.730469 285.308594 Z M 335.640625 294.820312 L 335.609375 286.699219 L 343.734375 286.660156 L 343.765625 294.785156 Z M 335.679688 304.300781 L 335.644531 296.175781 L 343.769531 296.140625 L 343.804688 304.265625 Z M 335.71875 313.78125 L 335.683594 305.65625 L 343.808594 305.621094 L 343.84375 313.746094 Z M 335.757812 323.257812 L 335.722656 315.132812 L 343.851562 315.097656 L 343.882812 323.21875 Z M 335.792969 332.730469 L 335.761719 324.609375 L 343.886719 324.578125 L 343.917969 332.699219 Z M 335.835938 342.210938 L 335.800781 334.085938 L 343.921875 334.050781 L 343.960938 342.175781 Z M 335.871094 351.691406 L 335.835938 343.566406 L 343.964844 343.527344 L 344 351.652344 Z M 335.910156 361.167969 L 335.875 353.046875 L 344.003906 353.007812 L 344.035156 361.132812 Z M 344.082031 371.960938 L 344.105469 379.273438 L 335.980469 379.3125 L 335.953125 371.996094 Z M 335.949219 370.644531 L 335.914062 362.519531 L 344.039062 362.488281 L 344.074219 370.605469 Z M 344.96875 256.871094 L 344.933594 248.746094 L 353.058594 248.710938 L 353.089844 256.835938 Z M 345 266.347656 L 344.96875 258.222656 L 353.09375 258.183594 L 353.128906 266.308594 Z M 345.046875 275.828125 L 345.007812 267.703125 L 353.136719 267.664062 L 353.167969 275.789062 Z M 345.078125 285.304688 L 345.046875 277.175781 L 353.175781 277.140625 L 353.207031 285.269531 Z M 345.117188 294.78125 L 345.085938 286.65625 L 353.210938 286.621094 L 353.246094 294.746094 Z M 345.160156 304.257812 L 345.125 296.132812 L 353.253906 296.097656 L 353.285156 304.21875 Z M 345.195312 313.734375 L 345.164062 305.613281 L 353.289062 305.570312 L 353.324219 313.699219 Z M 345.238281 323.214844 L 345.203125 315.089844 L 353.328125 315.054688 L 353.363281 323.179688 Z M 345.273438 332.691406 L 345.246094 324.5625 L 353.367188 324.53125 L 353.402344 332.652344 Z M 345.3125 342.164062 L 345.277344 334.046875 L 353.402344 334.007812 L 353.433594 342.128906 Z M 345.351562 351.648438 L 345.320312 343.523438 L 353.441406 343.484375 L 353.480469 351.605469 Z M 345.390625 361.125 L 345.359375 353 L 353.480469 352.960938 L 353.515625 361.089844 Z M 345.429688 370.601562 L 345.394531 362.480469 L 353.519531 362.441406 L 353.554688 370.5625 Z M 353.59375 380.582031 L 353.628906 388.707031 L 345.5 388.746094 L 345.46875 380.621094 Z M 345.460938 379.265625 L 345.433594 371.953125 L 353.5625 371.917969 L 353.589844 379.230469 Z M 354.441406 256.828125 L 354.410156 248.703125 L 362.539062 248.664062 L 362.570312 256.789062 Z M 354.484375 266.304688 L 354.449219 258.183594 L 362.574219 258.140625 L 362.609375 266.265625 Z M 354.519531 275.78125 L 354.492188 267.65625 L 362.613281 267.621094 L 362.648438 275.742188 Z M 354.558594 285.261719 L 354.527344 277.136719 L 362.652344 277.101562 L 362.6875 285.222656 Z M 354.597656 294.738281 L 354.566406 286.613281 L 362.695312 286.574219 L 362.726562 294.699219 Z M 354.636719 304.210938 L 354.605469 296.09375 L 362.730469 296.054688 L 362.761719 304.175781 Z M 354.675781 313.695312 L 354.644531 305.566406 L 362.765625 305.53125 L 362.800781 313.652344 Z M 354.714844 323.171875 L 354.683594 315.046875 L 362.804688 315.007812 L 362.839844 323.136719 Z M 354.753906 332.648438 L 354.722656 324.523438 L 362.84375 324.484375 L 362.882812 332.609375 Z M 354.789062 342.125 L 354.757812 334.003906 L 362.886719 333.964844 L 362.917969 342.089844 Z M 354.832031 351.601562 L 354.796875 343.480469 L 362.921875 343.441406 L 362.957031 351.566406 Z M 354.867188 361.082031 L 354.839844 352.957031 L 362.964844 352.917969 L 362.992188 361.042969 Z M 354.910156 370.554688 L 354.875 362.4375 L 363 362.398438 L 363.035156 370.523438 Z M 363.070312 380.539062 L 363.105469 388.664062 L 354.980469 388.703125 L 354.949219 380.578125 Z M 354.941406 379.222656 L 354.914062 371.910156 L 363.039062 371.875 L 363.070312 379.183594 Z M 334.660156 382.351562 C 335.101562 382.796875 335.546875 383.234375 336 383.664062 L 335.988281 380.664062 L 344.113281 380.625 L 344.148438 388.75 L 342.003906 388.757812 C 342.617188 389.222656 343.242188 389.667969 343.871094 390.105469 L 344.152344 390.105469 L 344.15625 390.308594 C 344.601562 390.613281 345.054688 390.917969 345.511719 391.214844 L 345.507812 390.097656 L 353.632812 390.0625 L 353.65625 395.675781 C 354.105469 395.875 354.558594 396.074219 355.011719 396.261719 L 354.988281 390.054688 L 363.113281 390.015625 L 363.144531 398.140625 L 360.265625 398.15625 C 350.761719 395.253906 342.054688 389.78125 334.660156 382.351562 Z M 365.566406 399.484375 C 363.777344 399.128906 362.011719 398.683594 360.265625 398.160156 C 362.011719 398.683594 363.777344 399.128906 365.566406 399.484375 Z M 372.632812 400.402344 C 373.074219 400.429688 373.523438 400.449219 373.960938 400.464844 C 371.121094 400.359375 368.3125 400.027344 365.570312 399.480469 L 372.632812 399.449219 Z M 363.886719 247.304688 L 363.851562 239.179688 L 371.980469 239.144531 L 372.011719 247.269531 Z M 363.921875 256.78125 L 363.890625 248.660156 L 372.015625 248.621094 L 372.050781 256.746094 Z M 363.960938 266.257812 L 363.929688 258.136719 L 372.050781 258.097656 L 372.085938 266.222656 Z M 364.003906 275.742188 L 363.96875 267.617188 L 372.09375 267.574219 L 372.128906 275.699219 Z M 364.042969 285.214844 L 364.007812 277.09375 L 372.132812 277.054688 L 372.164062 285.179688 Z M 364.078125 294.691406 L 364.046875 286.566406 L 372.167969 286.535156 L 372.203125 294.65625 Z M 364.117188 304.167969 L 364.082031 296.046875 L 372.210938 296.011719 L 372.242188 304.136719 Z M 364.15625 313.648438 L 364.121094 305.527344 L 372.25 305.488281 L 372.28125 313.609375 Z M 364.195312 323.128906 L 364.160156 315.003906 L 372.285156 314.964844 L 372.320312 323.089844 Z M 364.234375 332.601562 L 364.199219 324.484375 L 372.324219 324.441406 L 372.359375 332.566406 Z M 364.269531 342.078125 L 364.242188 333.957031 L 372.367188 333.921875 L 372.398438 342.039062 Z M 364.308594 351.5625 L 364.277344 343.4375 L 372.402344 343.398438 L 372.433594 351.519531 Z M 364.347656 361.039062 L 364.316406 352.914062 L 372.441406 352.875 L 372.472656 361 Z M 364.390625 370.511719 L 364.355469 362.394531 L 372.480469 362.355469 L 372.511719 370.476562 Z M 364.421875 379.179688 L 364.390625 371.867188 L 372.515625 371.828125 L 372.550781 379.144531 Z M 372.589844 389.976562 L 372.625 398.097656 L 364.5 398.136719 L 364.46875 390.015625 Z M 364.460938 388.65625 L 364.425781 380.53125 L 372.554688 380.496094 L 372.585938 388.621094 Z M 382.070312 389.929688 L 382.101562 398.050781 L 373.980469 398.089844 L 373.945312 389.96875 Z M 382.035156 380.453125 L 382.066406 388.578125 L 373.941406 388.613281 L 373.90625 380.488281 Z M 382 371.789062 L 382.03125 379.101562 L 373.898438 379.136719 L 373.875 371.820312 Z M 381.960938 362.3125 L 381.996094 370.433594 L 373.867188 370.472656 L 373.835938 362.347656 Z M 381.917969 352.832031 L 381.953125 360.953125 L 373.828125 360.992188 L 373.796875 352.871094 Z M 381.878906 343.351562 L 381.914062 351.476562 L 373.789062 351.515625 L 373.757812 343.390625 Z M 381.839844 333.878906 L 381.878906 342 L 373.746094 342.039062 L 373.71875 333.914062 Z M 381.808594 324.394531 L 381.839844 332.523438 L 373.710938 332.558594 L 373.679688 324.4375 Z M 381.761719 314.921875 L 381.796875 323.046875 L 373.675781 323.082031 L 373.644531 314.957031 Z M 381.730469 305.445312 L 381.761719 313.566406 L 373.636719 313.605469 L 373.601562 305.480469 Z M 381.691406 295.964844 L 381.71875 304.089844 L 373.59375 304.125 L 373.5625 296.003906 Z M 381.652344 286.492188 L 381.683594 294.613281 L 373.5625 294.648438 L 373.523438 286.527344 Z M 381.613281 277.007812 L 381.644531 285.136719 L 373.519531 285.171875 L 373.484375 277.046875 Z M 381.570312 267.535156 L 381.609375 275.652344 L 373.480469 275.695312 L 373.445312 267.570312 Z M 381.535156 258.058594 L 381.566406 266.179688 L 373.441406 266.214844 L 373.40625 258.097656 Z M 373.367188 247.261719 L 373.328125 239.140625 L 381.457031 239.101562 L 381.488281 247.226562 Z M 381.496094 248.578125 L 381.527344 256.703125 L 373.402344 256.738281 L 373.375 248.613281 Z M 440.03125 322.777344 L 439.996094 314.652344 L 441.683594 314.648438 C 441.664062 314.195312 441.652344 313.738281 441.628906 313.292969 C 441.703125 314.804688 441.742188 316.316406 441.75 317.84375 C 441.753906 318.839844 441.738281 319.820312 441.714844 320.804688 C 441.699219 321.460938 441.675781 322.117188 441.644531 322.769531 Z M 364.5 562.75 L 364.5 562.863281 C 364.5 562.863281 364.910156 563.980469 366.496094 565.152344 C 366.640625 567.96875 367.785156 570.167969 369.164062 570.160156 L 385.300781 570.085938 C 386.683594 570.078125 387.808594 567.871094 387.933594 565.046875 C 389.507812 563.867188 389.914062 562.746094 389.914062 562.746094 C 389.914062 562.746094 389.878906 562.160156 389.816406 561.101562 C 389.796875 560.738281 389.773438 560.328125 389.742188 559.863281 C 389.585938 557.109375 389.324219 552.550781 389.007812 546.964844 C 388.976562 546.429688 388.949219 545.882812 388.914062 545.320312 C 388.707031 541.667969 388.484375 537.640625 388.25 533.425781 C 388.203125 532.554688 388.15625 531.675781 388.105469 530.785156 C 387.886719 526.832031 387.667969 522.753906 387.453125 518.714844 C 387.414062 518.007812 387.375 517.300781 387.339844 516.597656 C 387.117188 512.378906 386.90625 508.230469 386.707031 504.324219 C 386.664062 503.480469 386.621094 502.644531 386.582031 501.824219 C 386.363281 497.382812 386.175781 493.328125 386.039062 489.941406 C 386.015625 489.484375 385.996094 489.039062 385.984375 488.605469 L 385.984375 488.582031 C 385.96875 488.152344 385.945312 487.730469 385.933594 487.328125 C 385.835938 484.710938 385.777344 482.664062 385.773438 481.378906 C 385.773438 481.265625 385.761719 481.164062 385.753906 481.050781 C 386.542969 480.644531 387.074219 479.902344 387.078125 479.046875 C 387.070312 478.195312 386.539062 477.460938 385.753906 477.058594 L 385.726562 470.382812 C 386.507812 469.972656 387.035156 469.234375 387.03125 468.382812 C 387.023438 467.453125 386.394531 466.660156 385.488281 466.292969 C 388.28125 452.503906 413.886719 405.894531 428.171875 383.398438 C 430.996094 379.757812 433.527344 375.8125 435.710938 371.59375 C 441.097656 362.175781 445.097656 351.433594 447.332031 339.832031 L 447.332031 339.835938 C 447.367188 339.675781 447.394531 339.519531 447.421875 339.363281 C 447.488281 339.007812 447.550781 338.65625 447.613281 338.300781 C 447.679688 337.953125 447.734375 337.601562 447.796875 337.246094 C 447.855469 336.914062 447.90625 336.574219 447.960938 336.234375 C 447.996094 336.046875 448.027344 335.851562 448.054688 335.667969 L 448.054688 335.664062 L 448.070312 335.578125 C 448.09375 335.425781 448.109375 335.269531 448.136719 335.113281 C 448.175781 334.832031 448.21875 334.550781 448.257812 334.269531 C 448.300781 333.980469 448.34375 333.699219 448.378906 333.40625 C 448.398438 333.257812 448.417969 333.105469 448.433594 332.957031 C 448.46875 332.707031 448.492188 332.464844 448.527344 332.21875 C 448.566406 331.878906 448.609375 331.546875 448.648438 331.207031 C 448.664062 331.070312 448.675781 330.929688 448.691406 330.789062 L 448.710938 330.640625 L 448.726562 330.46875 C 448.78125 329.972656 448.832031 329.476562 448.882812 328.972656 C 448.894531 328.8125 448.90625 328.648438 448.921875 328.488281 C 448.972656 327.902344 449.027344 327.308594 449.066406 326.726562 L 449.078125 326.550781 C 449.28125 323.671875 449.386719 320.761719 449.375 317.8125 C 449.167969 267.066406 416.085938 226.082031 375.476562 226.269531 C 341.203125 226.429688 312.527344 255.878906 304.550781 295.578125 L 304.542969 295.578125 C 303.882812 298.867188 303.371094 302.230469 303 305.648438 L 302.984375 305.785156 C 302.898438 306.617188 302.820312 307.453125 302.746094 308.296875 L 302.726562 308.507812 L 302.699219 308.855469 C 302.664062 309.28125 302.636719 309.710938 302.609375 310.136719 C 302.59375 310.320312 302.582031 310.503906 302.570312 310.691406 C 302.554688 310.972656 302.535156 311.257812 302.519531 311.542969 C 302.503906 311.878906 302.484375 312.214844 302.472656 312.554688 C 302.460938 312.761719 302.445312 312.972656 302.433594 313.179688 L 302.445312 313.1875 C 302.371094 314.941406 302.328125 316.710938 302.335938 318.488281 C 302.425781 340.949219 308.957031 361.492188 319.734375 377.398438 C 329.699219 393.542969 363.675781 451.132812 367.445312 466.257812 C 366.351562 466.554688 365.554688 467.433594 365.558594 468.480469 C 365.5625 469.332031 366.097656 470.066406 366.878906 470.464844 L 366.910156 477.140625 C 366.125 477.554688 365.605469 478.296875 365.605469 479.144531 C 365.609375 480 366.152344 480.738281 366.945312 481.144531 C 366.9375 481.25 366.925781 481.351562 366.925781 481.46875 C 366.929688 483.09375 366.863281 486.625 366.746094 491.34375 C 366.722656 492.148438 366.699219 492.992188 366.683594 493.867188 C 366.585938 497.261719 366.480469 501.132812 366.355469 505.257812 C 366.332031 506.039062 366.308594 506.824219 366.285156 507.621094 C 366.179688 511.332031 366.054688 515.214844 365.933594 519.128906 C 365.90625 519.96875 365.878906 520.808594 365.859375 521.648438 C 365.730469 525.53125 365.605469 529.40625 365.488281 533.140625 C 365.460938 533.945312 365.429688 534.738281 365.410156 535.523438 C 365.273438 539.570312 365.148438 543.414062 365.035156 546.867188 C 365.003906 547.734375 364.976562 548.574219 364.949219 549.386719 C 364.847656 552.46875 364.757812 555.164062 364.6875 557.316406 C 364.675781 557.695312 364.664062 558.054688 364.644531 558.402344 C 364.601562 559.792969 364.566406 560.898438 364.539062 561.660156 C 364.53125 561.859375 364.527344 562.03125 364.523438 562.183594 C 364.511719 562.453125 364.503906 562.640625 364.5 562.75 " fill-opacity="1" fill-rule="nonzero"/></g></g></g></g></svg>